<svg xmlns="http://www.w3.org/2000/svg" viewBox="0 0 189.97 15.92"><defs><style>.cls-1{fill:#fff;}</style></defs><title>title</title><g id="Layer_2" data-name="Layer 2"><g id="Layer_1-2" data-name="Layer 1"><path class="cls-1" d="M5.37.26V2.32H4V13.6H5.37v2.06H0V13.6H1.41V2.32H0V.26Z"/><path class="cls-1" d="M26.09,15.66H23.56v-10c0-.81.05-1.81.15-3h-.05a10.21,10.21,0,0,1-.41,1.45l-4.6,11.51H16.89L12.28,4.23a10.08,10.08,0,0,1-.41-1.53h0c.05.61.08,1.62.08,3v10H9.55V.26h3.6l4,10.26a15.33,15.33,0,0,1,.6,1.76h.05c.27-.81.48-1.41.65-1.81L22.62.26h3.47Z"/><path class="cls-1" d="M34.21,10.08v5.58H31.67V.26h4.67a6.19,6.19,0,0,1,4.11,1.23A4.31,4.31,0,0,1,41.91,5a4.8,4.8,0,0,1-1.52,3.68,5.81,5.81,0,0,1-4.13,1.43Zm0-7.72V8h1.66a3.65,3.65,0,0,0,2.5-.76,2.74,2.74,0,0,0,.86-2.15c0-1.81-1-2.72-3.16-2.72Z"/><path class="cls-1" d="M57.45,15.66H54.64l-1.38-3.92H47.2l-1.33,3.92h-2.8L48.84.26h2.88Zm-4.87-6L50.44,3.51a7.92,7.92,0,0,1-.2-1h-.05a5.68,5.68,0,0,1-.21,1L47.86,9.66Z"/><path class="cls-1" d="M71.77,15a9.34,9.34,0,0,1-4.32.9,7.1,7.1,0,0,1-5.38-2.12,7.73,7.73,0,0,1-2-5.55,8.07,8.07,0,0,1,2.28-6A7.75,7.75,0,0,1,68.07,0a9.42,9.42,0,0,1,3.7.63V3.17a6.53,6.53,0,0,0-3.43-.92,5.4,5.4,0,0,0-4.06,1.6,5.88,5.88,0,0,0-1.55,4.27,5.61,5.61,0,0,0,1.45,4.06A5.08,5.08,0,0,0,68,13.69a6.78,6.78,0,0,0,3.78-1Z"/><path class="cls-1" d="M86.36,2.43H81.94V15.66H79.38V2.43H75V.26h11.4Z"/><path class="cls-1" d="M98.23,15.66V.26h4.89a5.72,5.72,0,0,1,3.54,1A3,3,0,0,1,108,3.78a3.67,3.67,0,0,1-.74,2.28,4,4,0,0,1-2,1.37v.05a4,4,0,0,1,2.54,1.17,3.63,3.63,0,0,1,1,2.59,3.89,3.89,0,0,1-1.56,3.2,6.21,6.21,0,0,1-3.93,1.22Zm2.54-13.35V6.69h1.66a3.18,3.18,0,0,0,2.09-.63,2.19,2.19,0,0,0,.76-1.77c0-1.32-.89-2-2.65-2Zm0,6.43v4.88H103a3.3,3.3,0,0,0,2.2-.66,2.26,2.26,0,0,0,.78-1.82c0-1.6-1.11-2.4-3.32-2.4Z"/><path class="cls-1" d="M123.4.26l-5.05,9.81v5.59h-2.56V10.12L110.87.26h2.91l3,6.6c0,.08.15.38.32.9h0a5.91,5.91,0,0,1,.35-.9l3.17-6.6Z"/><path class="cls-1" d="M151.52,15.66H149v-10c0-.81.05-1.81.15-3h0a11.4,11.4,0,0,1-.42,1.45l-4.6,11.51h-1.76L137.7,4.23a11.44,11.44,0,0,1-.41-1.53h0c.06.61.09,1.62.09,3v10H135V.26h3.6l4.05,10.26a13.56,13.56,0,0,1,.6,1.76h.06c.26-.81.48-1.41.64-1.81L148.05.26h3.47Z"/><path class="cls-1" d="M169.75,15.66h-2.81l-1.38-3.92H159.5l-1.33,3.92h-2.8L161.14.26H164Zm-4.87-6-2.14-6.15a7.92,7.92,0,0,1-.2-1h0a5.68,5.68,0,0,1-.21,1l-2.12,6.15Z"/><path class="cls-1" d="M182,2.43h-4.43V15.66H175V2.43h-4.42V.26H182Z"/><path class="cls-1" d="M190,.26V2.32h-1.41V13.6H190v2.06H184.6V13.6H186V2.32H184.6V.26Z"/></g></g></svg>